<?xml version="1.0" encoding="UTF-8"?>
<!DOCTYPE svg PUBLIC "-//W3C//DTD SVG 1.1//EN" "http://www.w3.org/Graphics/SVG/1.1/DTD/svg11.dtd">
<svg xmlns="http://www.w3.org/2000/svg" version="1.1" width="512px" height="512px" style="shape-rendering:geometricPrecision; text-rendering:geometricPrecision; image-rendering:optimizeQuality; fill-rule:evenodd; clip-rule:evenodd" xmlns:xlink="http://www.w3.org/1999/xlink">
<g><path style="opacity:0.977" fill="white" d="M 226.5,-0.5 C 245.833,-0.5 265.167,-0.5 284.5,-0.5C 371.354,12.3014 436.854,56.3014 481,131.5C 496.697,161.423 506.864,193.09 511.5,226.5C 511.5,245.833 511.5,265.167 511.5,284.5C 498.677,371.412 454.677,436.912 379.5,481C 349.566,496.701 317.899,506.867 284.5,511.5C 265.167,511.5 245.833,511.5 226.5,511.5C 139.646,498.699 74.1462,454.699 30,379.5C 18.8991,358.617 10.5658,336.617 5,313.5C 3.46022,303.641 1.62688,293.974 -0.5,284.5C -0.5,265.167 -0.5,245.833 -0.5,226.5C 11.9017,140.627 55.2351,75.4604 129.5,31C 159.979,14.7846 192.313,4.28462 226.5,-0.5 Z M 324.5,114.5 C 332.208,113.732 338.875,115.899 344.5,121C 368.307,144.474 391.807,168.308 415,192.5C 444.557,235.53 446.057,279.53 419.5,324.5C 396.482,355.931 365.315,372.597 326,374.5C 297.319,373.065 272.152,363.232 250.5,345C 226.972,321.805 203.805,298.305 181,274.5C 175.532,256.764 181.865,246.097 200,242.5C 204.389,242.852 208.556,244.018 212.5,246C 235.221,269.211 258.221,292.211 281.5,315C 308.593,334.11 336.593,335.443 365.5,319C 391.641,298.129 400.141,271.296 391,238.5C 388.743,234.317 386.743,229.984 385,225.5C 382,221.5 379,217.5 376,213.5C 356.094,193.428 335.927,173.428 315.5,153.5C 303.248,141.28 303.582,129.447 316.5,118C 319.025,116.281 321.692,115.114 324.5,114.5 Z M 175.5,136.5 C 207.53,135.057 235.53,144.557 259.5,165C 283.71,188.709 307.377,212.876 330.5,237.5C 335.196,255.099 328.53,265.433 310.5,268.5C 305.927,267.698 301.594,266.198 297.5,264C 274.5,241 251.5,218 228.5,195C 202.05,177.201 174.717,175.867 146.5,191C 121.479,209.708 111.979,234.541 118,265.5C 120.811,276.12 125.478,285.787 132,294.5C 154.333,316.833 176.667,339.167 199,361.5C 207.264,375.39 204.43,386.556 190.5,395C 181.491,397.799 173.491,396.132 166.5,390C 142.693,366.526 119.193,342.692 96,318.5C 66.6121,275.524 64.9454,231.524 91,186.5C 111.839,157.656 140.005,140.99 175.5,136.5 Z"/></g>
</svg>
