<svg xmlns="http://www.w3.org/2000/svg" width="26" height="26" viewBox="0 0 26 26" fill="none">
  <path d="M22.3062 2.77377C18.5953 -0.924589 12.5777 -0.924589 8.89184 2.77377C6.29672 5.34381 5.51944 9.04216 6.52238 12.3017L0.630084 18.194C0.21637 18.6203 -0.0719766 19.4602 0.015781 20.062L0.391885 22.795C0.52979 23.6977 1.36976 24.5502 2.2724 24.6755L5.00543 25.0516C5.60719 25.1394 6.44716 24.8636 6.87341 24.4248L7.90143 23.3968C8.15216 23.1586 8.15216 22.7574 7.90143 22.5067L5.46929 20.0745C5.10572 19.711 5.10572 19.1092 5.46929 18.7456C5.83286 18.3821 6.43462 18.3821 6.79819 18.7456L9.24286 21.1903C9.48106 21.4285 9.88224 21.4285 10.1205 21.1903L12.7783 18.545C16.0253 19.5605 19.7237 18.7707 22.3062 16.2007C26.0046 12.5023 26.0046 6.47212 22.3062 2.77377ZM15.6743 12.5274C13.9442 12.5274 12.5401 11.1233 12.5401 9.3932C12.5401 7.66312 13.9442 6.259 15.6743 6.259C17.4043 6.259 18.8085 7.66312 18.8085 9.3932C18.8085 11.1233 17.4043 12.5274 15.6743 12.5274Z" fill="white"/>
</svg>