<svg xmlns="http://www.w3.org/2000/svg" width="60" height="56" viewBox="0 0 31 29" fill="none">
  <path d="M15.071 19.5404C12.1689 19.5404 9.81367 17.1851 9.81367 14.2831C9.81367 11.381 12.1689 9.02576 15.071 9.02576C17.973 9.02576 20.3283 11.381 20.3283 14.2831C20.3283 17.1851 17.973 19.5404 15.071 19.5404ZM15.071 11.1287C13.3326 11.1287 11.9166 12.5447 11.9166 14.2831C11.9166 16.0215 13.3326 17.4375 15.071 17.4375C16.8094 17.4375 18.2254 16.0215 18.2254 14.2831C18.2254 12.5447 16.8094 11.1287 15.071 11.1287Z" fill="white"/>
  <path d="M19.5712 28.5687C19.2768 28.5687 18.9824 28.5266 18.688 28.4565C17.8188 28.2182 17.0898 27.6714 16.6271 26.9004L16.4589 26.62C15.6318 25.19 14.4962 25.19 13.669 26.62L13.5148 26.8863C13.0522 27.6714 12.3232 28.2322 11.4539 28.4565C10.5707 28.6949 9.65945 28.5687 8.88837 28.106L6.47702 26.7181C5.62183 26.2274 5.00497 25.4283 4.7386 24.461C4.48625 23.4936 4.61242 22.4982 5.1031 21.643C5.50967 20.928 5.62183 20.2831 5.38349 19.8766C5.14516 19.47 4.54232 19.2317 3.71517 19.2317C1.66832 19.2317 0 17.5634 0 15.5165V13.0491C0 11.0022 1.66832 9.3339 3.71517 9.3339C4.54232 9.3339 5.14516 9.09556 5.38349 8.689C5.62183 8.28243 5.52369 7.63753 5.1031 6.92254C4.61242 6.06735 4.48625 5.05794 4.7386 4.10462C4.99095 3.13727 5.60781 2.33816 6.47702 1.84747L8.90239 0.459541C10.4866 -0.479767 12.5755 0.0669942 13.5288 1.67924L13.6971 1.95963C14.5242 3.38962 15.6598 3.38962 16.487 1.95963L16.6412 1.69326C17.5945 0.0669942 19.6834 -0.479767 21.2816 0.47356L23.693 1.86149C24.5482 2.35218 25.165 3.15129 25.4314 4.11864C25.6838 5.08598 25.5576 6.08137 25.0669 6.93656C24.6603 7.65155 24.5482 8.29645 24.7865 8.70302C25.0248 9.10958 25.6277 9.34792 26.4548 9.34792C28.5017 9.34792 30.17 11.0162 30.17 13.0631V15.5305C30.17 17.5774 28.5017 19.2457 26.4548 19.2457C25.6277 19.2457 25.0248 19.484 24.7865 19.8906C24.5482 20.2972 24.6463 20.9421 25.0669 21.6571C25.5576 22.5122 25.6978 23.5216 25.4314 24.475C25.1791 25.4423 24.5622 26.2414 23.693 26.7321L21.2676 28.1201C20.7349 28.4145 20.1601 28.5687 19.5712 28.5687ZM15.071 23.3815C16.3187 23.3815 17.4823 24.1665 18.2815 25.5545L18.4357 25.8208C18.6039 26.1153 18.8843 26.3256 19.2208 26.4097C19.5572 26.4938 19.8937 26.4517 20.1741 26.2835L22.5995 24.8815C22.964 24.6712 23.2444 24.3208 23.3565 23.9002C23.4687 23.4796 23.4126 23.045 23.2023 22.6805C22.4032 21.3066 22.3051 19.8906 22.9219 18.8111C23.5388 17.7316 24.8145 17.1147 26.4128 17.1147C27.31 17.1147 28.025 16.3997 28.025 15.5025V13.035C28.025 12.1518 27.31 11.4228 26.4128 11.4228C24.8145 11.4228 23.5388 10.8059 22.9219 9.72644C22.3051 8.64694 22.4032 7.23097 23.2023 5.85706C23.4126 5.49255 23.4687 5.05794 23.3565 4.63736C23.2444 4.21677 22.978 3.8803 22.6135 3.65599L20.1881 2.26806C19.5853 1.90355 18.7862 2.11384 18.4216 2.7307L18.2674 2.99707C17.4683 4.38501 16.3047 5.1701 15.057 5.1701C13.8092 5.1701 12.6456 4.38501 11.8465 2.99707L11.6923 2.71668C11.3418 2.12786 10.5567 1.91757 9.95386 2.26806L7.52848 3.67001C7.16397 3.8803 6.88358 4.23079 6.77143 4.65138C6.65927 5.07196 6.71535 5.50657 6.92564 5.87107C7.72475 7.24499 7.82289 8.66096 7.20603 9.74046C6.58917 10.82 5.3134 11.4368 3.71517 11.4368C2.81792 11.4368 2.10293 12.1518 2.10293 13.0491V15.5165C2.10293 16.3997 2.81792 17.1287 3.71517 17.1287C5.3134 17.1287 6.58917 17.7456 7.20603 18.8251C7.82289 19.9046 7.72475 21.3206 6.92564 22.6945C6.71535 23.059 6.65927 23.4936 6.77143 23.9142C6.88358 24.3348 7.14995 24.6712 7.51446 24.8956L9.93984 26.2835C10.2342 26.4657 10.5847 26.5078 10.9072 26.4237C11.2437 26.3396 11.524 26.1153 11.7063 25.8208L11.8605 25.5545C12.6596 24.1806 13.8232 23.3815 15.071 23.3815Z" fill="white"/>
</svg>